<svg width="256" height="256" viewBox="0 0 256 256" fill="none" xmlns="http://www.w3.org/2000/svg">
  <defs>
    <linearGradient id="bg" x1="32" y1="28" x2="232" y2="224" gradientUnits="userSpaceOnUse">
      <stop stop-color="#667EEA"/>
      <stop offset="0.5" stop-color="#7C5CFC"/>
      <stop offset="1" stop-color="#A855F7"/>
    </linearGradient>
    <linearGradient id="stroke" x1="70" y1="54" x2="186" y2="202" gradientUnits="userSpaceOnUse">
      <stop stop-color="#F5F3FF"/>
      <stop offset="1" stop-color="#DDD6FE"/>
    </linearGradient>
    <filter id="glow" x="20" y="20" width="216" height="216" filterUnits="userSpaceOnUse" color-interpolation-filters="sRGB">
      <feFlood flood-opacity="0" result="BackgroundImageFix"/>
      <feBlend mode="normal" in="SourceGraphic" in2="BackgroundImageFix" result="shape"/>
      <feGaussianBlur stdDeviation="12" result="effect1_foregroundBlur"/>
    </filter>
  </defs>

  <rect x="16" y="16" width="224" height="224" rx="56" fill="#08090D"/>
  <rect x="24" y="24" width="208" height="208" rx="48" fill="url(#bg)"/>
  <rect x="24" y="24" width="208" height="208" rx="48" fill="url(#bg)" fill-opacity="0.18"/>
  <path d="M128 48L198 128L128 208L58 128L128 48Z" fill="#0F1117" fill-opacity="0.18"/>
  <g filter="url(#glow)">
    <path d="M128 58L186 128L128 198L70 128L128 58Z" stroke="url(#stroke)" stroke-width="18" stroke-linejoin="round"/>
  </g>
  <path d="M128 82L164 128L128 174L92 128L128 82Z" stroke="#F8FAFC" stroke-opacity="0.92" stroke-width="8" stroke-linejoin="round"/>
  <circle cx="128" cy="128" r="6" fill="#F8FAFC"/>
</svg>
